# xmcd CD database file
#
# Track frame offsets:
#	150
#	30267
#	39914
#	59106
#	72992
#	108339
#	120268
#	133966
#	172350
#	189702
#	218835
#
# Disc length: 3350 seconds
#
# Revision: 0
# Processed by: cddbd v1.5.2PL0 Copyright (c) Steve Scherf et al.
# Submitted via: CDex 1.51
#
DISCID=a40d140b
DTITLE=Gary Moore - Blues For Greeny
DYEAR=1995
DGENRE=Blues
TTITLE0=If You Be My Baby
TTITLE1=Long Grey Mare
TTITLE2=Merry Go Round
TTITLE3=I Loved Another Woman
TTITLE4=Need Your Love So Bad
TTITLE5=The Same Way
TTITLE6=The Supernatural
TTITLE7=Driftin'
TTITLE8=Showbiz Blues
TTITLE9=Love That Burns
TTITLE10=Looking For Somebody
EXTD=YEAR: 1995
EXTT0=
EXTT1=
EXTT2=
EXTT3=
EXTT4=
EXTT5=
EXTT6=
EXTT7=
EXTT8=
EXTT9=
EXTT10=
PLAYORDER=
